# xmcd CD database file
#
# Track frame offsets:
#	150
#	20041
#	43200
#	61492
#	71456
#	84357
#	116193
#	131541
#	148832
#	159460
#	186661
#	211366
#	240659
#
# Disc length: 3410 seconds
#
# Revision: 0
# Processed by: cddbd v1.5.2PL0 Copyright (c) Steve Scherf et al.
# Submitted via: CDex 1.70beta2
#
DISCID=c70d500d
DTITLE=IAN SIEGAL - Swagger
DYEAR=2007
DGENRE=Blues
TTITLE0=Swagger
TTITLE1=Groundhog Blues
TTITLE2=Catch 22
TTITLE3=Horse Dream(Western)
TTITLE4=Stranger Than A Green Dog
TTITLE5=Mortal Coil Shuffle
TTITLE6=High Horse
TTITLE7=God Don't Like Ugly
TTITLE8=I Can't Believe You Wanna Leave
TTITLE9=Horse Dream(Swamp)
TTITLE10=I Don't Know What You Got(But It's Got Me)
TTITLE11=Curses
TTITLE12=Let My Love
EXTD=YEAR: 2007
EXTT0=
EXTT1=
EXTT2=
EXTT3=
EXTT4=
EXTT5=
EXTT6=
EXTT7=
EXTT8=
EXTT9=
EXTT10=
EXTT11=
EXTT12=
PLAYORDER=
